<mxfile host="Electron" agent="Mozilla/5.0 (Windows NT 10.0; Win64; x64) AppleWebKit/537.36 (KHTML, like Gecko) draw.io/28.1.2 Chrome/138.0.7204.243 Electron/37.4.0 Safari/537.36" version="28.1.2">
  <diagram name="Page-1" id="gEqqAITIOHPn61s4GTyz">
    <mxGraphModel dx="983" dy="586" grid="1" gridSize="10" guides="1" tooltips="1" connect="1" arrows="1" fold="1" page="1" pageScale="1" pageWidth="850" pageHeight="1100" math="0" shadow="0">
      <root>
        <mxCell id="0" />
        <mxCell id="1" parent="0" />
        <mxCell id="rCGK3nDvGJB_TYEv_ewe-34" value="" style="rounded=1;whiteSpace=wrap;html=1;fillColor=none;dashed=1;strokeColor=#6c8ebf;" parent="1" vertex="1">
          <mxGeometry x="100" y="270" width="340" height="340" as="geometry" />
        </mxCell>
        <mxCell id="rCGK3nDvGJB_TYEv_ewe-38" value="" style="group" parent="1" vertex="1" connectable="0">
          <mxGeometry x="480" y="250" width="180" height="380" as="geometry" />
        </mxCell>
        <mxCell id="rCGK3nDvGJB_TYEv_ewe-36" value="" style="rounded=1;whiteSpace=wrap;html=1;fillColor=none;dashed=1;strokeColor=#d6b656;" parent="rCGK3nDvGJB_TYEv_ewe-38" vertex="1">
          <mxGeometry y="18.53658536585366" width="180" height="361.4634146341464" as="geometry" />
        </mxCell>
        <mxCell id="rCGK3nDvGJB_TYEv_ewe-37" value="&lt;b&gt;ERP&lt;/b&gt;" style="rounded=1;whiteSpace=wrap;html=1;fillColor=#fff2cc;strokeColor=#d6b656;" parent="rCGK3nDvGJB_TYEv_ewe-38" vertex="1">
          <mxGeometry x="30" width="120" height="27.80487804878049" as="geometry" />
        </mxCell>
        <mxCell id="rCGK3nDvGJB_TYEv_ewe-18" value="" style="group" parent="rCGK3nDvGJB_TYEv_ewe-38" vertex="1" connectable="0">
          <mxGeometry x="30" y="260.2352941176471" width="130" height="89.41176470588235" as="geometry" />
        </mxCell>
        <mxCell id="rCGK3nDvGJB_TYEv_ewe-19" value="erp_cust_az12" style="swimlane;fontStyle=0;childLayout=stackLayout;horizontal=1;startSize=30;horizontalStack=0;resizeParent=1;resizeParentMax=0;resizeLast=0;collapsible=1;marginBottom=0;whiteSpace=wrap;html=1;rounded=1;fillColor=#fff2cc;strokeColor=#d6b656;" parent="rCGK3nDvGJB_TYEv_ewe-18" vertex="1">
          <mxGeometry y="22.352941176470587" width="130" height="83.52941176470588" as="geometry" />
        </mxCell>
        <mxCell id="rCGK3nDvGJB_TYEv_ewe-20" value="cid" style="text;strokeColor=none;fillColor=none;align=left;verticalAlign=middle;spacingLeft=4;spacingRight=4;overflow=hidden;points=[[0,0.5],[1,0.5]];portConstraint=eastwest;rotatable=0;whiteSpace=wrap;html=1;" parent="rCGK3nDvGJB_TYEv_ewe-19" vertex="1">
          <mxGeometry y="30" width="130" height="33.529411764705884" as="geometry" />
        </mxCell>
        <mxCell id="2HohDafLkgW13WRxCvLK-5" value="CUSTOMER" style="text;html=1;strokeColor=#314354;fillColor=#647687;align=center;verticalAlign=middle;whiteSpace=wrap;overflow=hidden;fontStyle=1;fontColor=#ffffff;" vertex="1" parent="rCGK3nDvGJB_TYEv_ewe-19">
          <mxGeometry y="63.529411764705884" width="130" height="20" as="geometry" />
        </mxCell>
        <mxCell id="rCGK3nDvGJB_TYEv_ewe-21" value="Location of Customers (Country)" style="text;html=1;align=center;verticalAlign=middle;whiteSpace=wrap;rounded=0;fontSize=9;" parent="rCGK3nDvGJB_TYEv_ewe-18" vertex="1">
          <mxGeometry x="12.5" width="105" height="22.352941176470587" as="geometry" />
        </mxCell>
        <mxCell id="rCGK3nDvGJB_TYEv_ewe-29" value="" style="group" parent="rCGK3nDvGJB_TYEv_ewe-38" vertex="1" connectable="0">
          <mxGeometry x="30" y="25.995882352941173" width="130" height="89.41176470588235" as="geometry" />
        </mxCell>
        <mxCell id="rCGK3nDvGJB_TYEv_ewe-30" value="erp_px_cat_g1v2" style="swimlane;fontStyle=0;childLayout=stackLayout;horizontal=1;startSize=30;horizontalStack=0;resizeParent=1;resizeParentMax=0;resizeLast=0;collapsible=1;marginBottom=0;whiteSpace=wrap;html=1;rounded=1;fillColor=#fff2cc;strokeColor=#d6b656;" parent="rCGK3nDvGJB_TYEv_ewe-29" vertex="1">
          <mxGeometry y="22.352941176470587" width="130" height="85.88235294117646" as="geometry" />
        </mxCell>
        <mxCell id="rCGK3nDvGJB_TYEv_ewe-31" value="id" style="text;strokeColor=none;fillColor=none;align=left;verticalAlign=middle;spacingLeft=4;spacingRight=4;overflow=hidden;points=[[0,0.5],[1,0.5]];portConstraint=eastwest;rotatable=0;whiteSpace=wrap;html=1;" parent="rCGK3nDvGJB_TYEv_ewe-30" vertex="1">
          <mxGeometry y="30" width="130" height="33.529411764705884" as="geometry" />
        </mxCell>
        <mxCell id="2HohDafLkgW13WRxCvLK-2" value="PRODUCT" style="text;html=1;strokeColor=#B20000;fillColor=#e51400;align=center;verticalAlign=middle;whiteSpace=wrap;overflow=hidden;fontStyle=1;fontColor=#ffffff;" vertex="1" parent="rCGK3nDvGJB_TYEv_ewe-30">
          <mxGeometry y="63.529411764705884" width="130" height="22.352941176470587" as="geometry" />
        </mxCell>
        <mxCell id="rCGK3nDvGJB_TYEv_ewe-32" value="Product Categories" style="text;html=1;align=center;verticalAlign=middle;whiteSpace=wrap;rounded=0;fontSize=9;" parent="rCGK3nDvGJB_TYEv_ewe-29" vertex="1">
          <mxGeometry x="12.5" width="105" height="22.352941176470587" as="geometry" />
        </mxCell>
        <mxCell id="rCGK3nDvGJB_TYEv_ewe-24" value="" style="group" parent="rCGK3nDvGJB_TYEv_ewe-38" vertex="1" connectable="0">
          <mxGeometry x="30" y="138.04555555555552" width="130" height="84.44444444444444" as="geometry" />
        </mxCell>
        <mxCell id="rCGK3nDvGJB_TYEv_ewe-25" value="erp_loc_a101" style="swimlane;fontStyle=0;childLayout=stackLayout;horizontal=1;startSize=30;horizontalStack=0;resizeParent=1;resizeParentMax=0;resizeLast=0;collapsible=1;marginBottom=0;whiteSpace=wrap;html=1;rounded=1;fillColor=#fff2cc;strokeColor=#d6b656;" parent="rCGK3nDvGJB_TYEv_ewe-24" vertex="1">
          <mxGeometry y="21.11111111111111" width="130" height="81.66666666666667" as="geometry" />
        </mxCell>
        <mxCell id="rCGK3nDvGJB_TYEv_ewe-26" value="cid" style="text;strokeColor=none;fillColor=none;align=left;verticalAlign=middle;spacingLeft=4;spacingRight=4;overflow=hidden;points=[[0,0.5],[1,0.5]];portConstraint=eastwest;rotatable=0;whiteSpace=wrap;html=1;" parent="rCGK3nDvGJB_TYEv_ewe-25" vertex="1">
          <mxGeometry y="30" width="130" height="31.666666666666668" as="geometry" />
        </mxCell>
        <mxCell id="2HohDafLkgW13WRxCvLK-4" value="CUSTOMER" style="text;html=1;strokeColor=#314354;fillColor=#647687;align=center;verticalAlign=middle;whiteSpace=wrap;overflow=hidden;fontStyle=1;fontColor=#ffffff;" vertex="1" parent="rCGK3nDvGJB_TYEv_ewe-25">
          <mxGeometry y="61.66666666666667" width="130" height="20" as="geometry" />
        </mxCell>
        <mxCell id="rCGK3nDvGJB_TYEv_ewe-27" value="Extra Customer Information (Birthday)" style="text;html=1;align=center;verticalAlign=middle;whiteSpace=wrap;rounded=0;fontSize=9;" parent="rCGK3nDvGJB_TYEv_ewe-24" vertex="1">
          <mxGeometry x="12.5" width="105" height="21.11111111111111" as="geometry" />
        </mxCell>
        <mxCell id="rCGK3nDvGJB_TYEv_ewe-9" value="crm_sales_details" style="swimlane;fontStyle=0;childLayout=stackLayout;horizontal=1;startSize=30;horizontalStack=0;resizeParent=1;resizeParentMax=0;resizeLast=0;collapsible=1;marginBottom=0;whiteSpace=wrap;html=1;rounded=1;fillColor=#dae8fc;strokeColor=#6c8ebf;" parent="1" vertex="1">
          <mxGeometry x="110" y="360" width="130" height="110" as="geometry" />
        </mxCell>
        <mxCell id="rCGK3nDvGJB_TYEv_ewe-10" value="prd_key" style="text;strokeColor=none;fillColor=none;align=left;verticalAlign=middle;spacingLeft=4;spacingRight=4;overflow=hidden;points=[[0,0.5],[1,0.5]];portConstraint=eastwest;rotatable=0;whiteSpace=wrap;html=1;" parent="rCGK3nDvGJB_TYEv_ewe-9" vertex="1">
          <mxGeometry y="30" width="130" height="30" as="geometry" />
        </mxCell>
        <mxCell id="rCGK3nDvGJB_TYEv_ewe-13" value="cst_id" style="text;strokeColor=none;fillColor=none;align=left;verticalAlign=middle;spacingLeft=4;spacingRight=4;overflow=hidden;points=[[0,0.5],[1,0.5]];portConstraint=eastwest;rotatable=0;whiteSpace=wrap;html=1;" parent="rCGK3nDvGJB_TYEv_ewe-9" vertex="1">
          <mxGeometry y="60" width="130" height="30" as="geometry" />
        </mxCell>
        <mxCell id="2HohDafLkgW13WRxCvLK-6" value="SALES" style="text;html=1;strokeColor=#B09500;fillColor=#e3c800;align=center;verticalAlign=middle;whiteSpace=wrap;overflow=hidden;fontStyle=1;fontColor=#000000;" vertex="1" parent="rCGK3nDvGJB_TYEv_ewe-9">
          <mxGeometry y="90" width="130" height="20" as="geometry" />
        </mxCell>
        <mxCell id="rCGK3nDvGJB_TYEv_ewe-11" value="Transactional Records about Sales &amp;amp; Orders" style="text;html=1;align=center;verticalAlign=middle;whiteSpace=wrap;rounded=0;fontSize=9;" parent="1" vertex="1">
          <mxGeometry x="122.5" y="340" width="105" height="20" as="geometry" />
        </mxCell>
        <mxCell id="rCGK3nDvGJB_TYEv_ewe-14" style="edgeStyle=orthogonalEdgeStyle;rounded=0;orthogonalLoop=1;jettySize=auto;html=1;exitX=1;exitY=0.5;exitDx=0;exitDy=0;entryX=0;entryY=0.5;entryDx=0;entryDy=0;" parent="1" source="rCGK3nDvGJB_TYEv_ewe-10" target="rCGK3nDvGJB_TYEv_ewe-7" edge="1">
          <mxGeometry relative="1" as="geometry" />
        </mxCell>
        <mxCell id="rCGK3nDvGJB_TYEv_ewe-15" style="edgeStyle=orthogonalEdgeStyle;rounded=0;orthogonalLoop=1;jettySize=auto;html=1;exitX=1;exitY=0.5;exitDx=0;exitDy=0;entryX=0;entryY=0.5;entryDx=0;entryDy=0;" parent="1" source="rCGK3nDvGJB_TYEv_ewe-13" target="rCGK3nDvGJB_TYEv_ewe-2" edge="1">
          <mxGeometry relative="1" as="geometry" />
        </mxCell>
        <mxCell id="rCGK3nDvGJB_TYEv_ewe-16" value="" style="group" parent="1" vertex="1" connectable="0">
          <mxGeometry x="290" y="280" width="130" height="80" as="geometry" />
        </mxCell>
        <mxCell id="rCGK3nDvGJB_TYEv_ewe-6" value="crm_cust_info" style="swimlane;fontStyle=0;childLayout=stackLayout;horizontal=1;startSize=30;horizontalStack=0;resizeParent=1;resizeParentMax=0;resizeLast=0;collapsible=1;marginBottom=0;whiteSpace=wrap;html=1;rounded=1;fillColor=#dae8fc;strokeColor=#6c8ebf;" parent="rCGK3nDvGJB_TYEv_ewe-16" vertex="1">
          <mxGeometry y="20" width="130" height="80" as="geometry" />
        </mxCell>
        <mxCell id="rCGK3nDvGJB_TYEv_ewe-7" value="prd_key" style="text;strokeColor=none;fillColor=none;align=left;verticalAlign=middle;spacingLeft=4;spacingRight=4;overflow=hidden;points=[[0,0.5],[1,0.5]];portConstraint=eastwest;rotatable=0;whiteSpace=wrap;html=1;" parent="rCGK3nDvGJB_TYEv_ewe-6" vertex="1">
          <mxGeometry y="30" width="130" height="30" as="geometry" />
        </mxCell>
        <mxCell id="2HohDafLkgW13WRxCvLK-1" value="PRODUCT" style="text;html=1;strokeColor=#B20000;fillColor=#e51400;align=center;verticalAlign=middle;whiteSpace=wrap;overflow=hidden;fontStyle=1;fontColor=#ffffff;" vertex="1" parent="rCGK3nDvGJB_TYEv_ewe-6">
          <mxGeometry y="60" width="130" height="20" as="geometry" />
        </mxCell>
        <mxCell id="rCGK3nDvGJB_TYEv_ewe-8" value="Current &amp;amp; History Product Information" style="text;html=1;align=center;verticalAlign=middle;whiteSpace=wrap;rounded=0;fontSize=9;" parent="rCGK3nDvGJB_TYEv_ewe-16" vertex="1">
          <mxGeometry x="12.5" width="105" height="20" as="geometry" />
        </mxCell>
        <mxCell id="rCGK3nDvGJB_TYEv_ewe-17" value="" style="group" parent="1" vertex="1" connectable="0">
          <mxGeometry x="290" y="440" width="130" height="70" as="geometry" />
        </mxCell>
        <mxCell id="rCGK3nDvGJB_TYEv_ewe-1" value="crm_cust_info" style="swimlane;fontStyle=0;childLayout=stackLayout;horizontal=1;startSize=30;horizontalStack=0;resizeParent=1;resizeParentMax=0;resizeLast=0;collapsible=1;marginBottom=0;whiteSpace=wrap;html=1;rounded=1;fillColor=#dae8fc;strokeColor=#6c8ebf;" parent="rCGK3nDvGJB_TYEv_ewe-17" vertex="1">
          <mxGeometry y="10" width="130" height="110" as="geometry" />
        </mxCell>
        <mxCell id="rCGK3nDvGJB_TYEv_ewe-2" value="cst_id" style="text;strokeColor=none;fillColor=none;align=left;verticalAlign=middle;spacingLeft=4;spacingRight=4;overflow=hidden;points=[[0,0.5],[1,0.5]];portConstraint=eastwest;rotatable=0;whiteSpace=wrap;html=1;" parent="rCGK3nDvGJB_TYEv_ewe-1" vertex="1">
          <mxGeometry y="30" width="130" height="30" as="geometry" />
        </mxCell>
        <mxCell id="rCGK3nDvGJB_TYEv_ewe-22" value="cst_key" style="text;strokeColor=none;fillColor=none;align=left;verticalAlign=middle;spacingLeft=4;spacingRight=4;overflow=hidden;points=[[0,0.5],[1,0.5]];portConstraint=eastwest;rotatable=0;whiteSpace=wrap;html=1;" parent="rCGK3nDvGJB_TYEv_ewe-1" vertex="1">
          <mxGeometry y="60" width="130" height="30" as="geometry" />
        </mxCell>
        <mxCell id="2HohDafLkgW13WRxCvLK-3" value="CUSTOMER" style="text;html=1;strokeColor=#314354;fillColor=#647687;align=center;verticalAlign=middle;whiteSpace=wrap;overflow=hidden;fontStyle=1;fontColor=#ffffff;" vertex="1" parent="rCGK3nDvGJB_TYEv_ewe-1">
          <mxGeometry y="90" width="130" height="20" as="geometry" />
        </mxCell>
        <mxCell id="rCGK3nDvGJB_TYEv_ewe-5" value="Customer Information" style="text;html=1;align=center;verticalAlign=middle;whiteSpace=wrap;rounded=0;fontSize=9;" parent="rCGK3nDvGJB_TYEv_ewe-17" vertex="1">
          <mxGeometry x="12.5" width="105" height="10" as="geometry" />
        </mxCell>
        <mxCell id="rCGK3nDvGJB_TYEv_ewe-23" style="edgeStyle=orthogonalEdgeStyle;rounded=0;orthogonalLoop=1;jettySize=auto;html=1;exitX=0;exitY=0.5;exitDx=0;exitDy=0;entryX=1;entryY=0.5;entryDx=0;entryDy=0;" parent="1" source="rCGK3nDvGJB_TYEv_ewe-20" target="rCGK3nDvGJB_TYEv_ewe-22" edge="1">
          <mxGeometry relative="1" as="geometry" />
        </mxCell>
        <mxCell id="rCGK3nDvGJB_TYEv_ewe-33" style="edgeStyle=orthogonalEdgeStyle;rounded=0;orthogonalLoop=1;jettySize=auto;html=1;exitX=0;exitY=0.5;exitDx=0;exitDy=0;entryX=1;entryY=0.5;entryDx=0;entryDy=0;" parent="1" source="rCGK3nDvGJB_TYEv_ewe-31" target="rCGK3nDvGJB_TYEv_ewe-7" edge="1">
          <mxGeometry relative="1" as="geometry" />
        </mxCell>
        <mxCell id="rCGK3nDvGJB_TYEv_ewe-35" value="&lt;b&gt;CRM&lt;/b&gt;" style="rounded=1;whiteSpace=wrap;html=1;fillColor=#dae8fc;strokeColor=#6c8ebf;" parent="1" vertex="1">
          <mxGeometry x="210" y="250" width="120" height="30" as="geometry" />
        </mxCell>
        <mxCell id="rCGK3nDvGJB_TYEv_ewe-39" style="edgeStyle=orthogonalEdgeStyle;rounded=0;orthogonalLoop=1;jettySize=auto;html=1;entryX=1;entryY=0.5;entryDx=0;entryDy=0;" parent="1" source="rCGK3nDvGJB_TYEv_ewe-26" target="rCGK3nDvGJB_TYEv_ewe-22" edge="1">
          <mxGeometry relative="1" as="geometry">
            <mxPoint x="460" y="455" as="targetPoint" />
          </mxGeometry>
        </mxCell>
      </root>
    </mxGraphModel>
  </diagram>
</mxfile>
